<svg width="28" height="32" viewBox="0 0 28 32" fill="none" xmlns="http://www.w3.org/2000/svg">
<path d="M22.6341 11.9985C21.7773 10.6454 20.2116 9.8725 18.5713 10.1022V4.625C18.5713 2.07475 16.5206 0 14 0C11.4793 0 9.42871 2.07475 9.42871 4.625L10 10.5L8.83258 5.57188C7.91115 3.17769 5.24065 2.00688 2.88808 2.9505C0.545959 3.88987 -0.598166 6.56019 0.313022 8.92813L3.79783 17.9861C1.88802 19.5458 1.04821 21.5991 2.25202 23.7497L5.68033 29.8746C6.41408 31.1856 7.79565 32 9.28596 32H22.1423C24.0638 32 25.7397 30.66 26.177 28.7627L27.8912 21.3253C27.963 21.0136 27.9992 20.6949 27.9993 20.3751L28 16C28 13.1902 25.2961 11.1661 22.6341 11.9985ZM24.9992 20.375C24.9992 20.468 24.9886 20.5611 24.9678 20.6514L23.2536 28.089C23.13 28.6254 22.673 29 22.1423 29H9.28596C8.88058 29 8.50208 28.7737 8.29815 28.4094L4.86977 22.2844C4.58496 21.7756 4.70608 21.1177 5.15152 20.7539L6.81696 19.3937C6.98009 19.2605 7.09699 19.0791 7.151 18.8756C7.205 18.672 7.19335 18.4566 7.11771 18.26L3.11208 7.85069C2.32665 5.80975 5.27315 4.67731 6.0319 6.64931L9.7684 16.3591C9.84098 16.5478 9.96901 16.71 10.1356 16.8244C10.3022 16.9388 10.4996 17 10.7017 17H11.4287C11.981 17 12.4287 16.5523 12.4287 16V4.625C12.4287 2.47656 15.5713 2.47312 15.5713 4.625V16C15.5713 16.5523 16.019 17 16.5713 17H16.9998C17.5521 17 17.9998 16.5523 17.9998 16V14.25C17.9998 12.6799 20.2852 12.6776 20.2852 14.25V16C20.2852 16.5523 20.7329 17 21.2852 17H21.7137C22.266 17 22.7137 16.5523 22.7137 16C22.7137 14.43 24.9991 14.4275 24.9991 16V20.375H24.9992Z" fill="#020817"/>
</svg>
