<svg width="670" height="670" viewBox="0 0 670 670" fill="none" xmlns="http://www.w3.org/2000/svg">
<rect width="670" height="670" fill="white"/>
<path d="M336.941 93C288.481 93.1905 242.06 112.539 207.793 146.829C173.526 181.119 154.19 227.571 154 276.064C154.004 296.272 157.259 316.346 163.641 335.518C165.939 341.801 170.555 346.964 176.539 349.947C182.524 352.93 189.423 353.507 195.819 351.557C201.999 349.19 207.047 344.555 209.935 338.596C212.823 332.638 213.334 325.802 211.365 319.479C205.945 304.543 203.529 288.682 204.255 272.808C205.026 247.214 213.218 222.395 227.832 201.376C242.446 180.356 262.852 164.041 286.565 154.418C310.278 144.795 336.276 142.278 361.393 147.175C386.51 152.072 409.663 164.17 428.032 181.997C446.401 199.825 459.194 222.612 464.853 247.584C470.513 272.556 468.795 298.636 459.909 322.649C451.022 346.662 435.35 367.571 414.802 382.831C394.253 398.091 369.714 407.044 344.172 408.599C344.172 408.599 318.502 410.167 305.728 411.735C301.023 412.415 296.357 413.341 291.748 414.508C291.591 414.669 291.404 414.796 291.197 414.883C290.99 414.97 290.768 415.015 290.543 415.015C290.319 415.015 290.096 414.97 289.889 414.883C289.683 414.796 289.495 414.669 289.338 414.508C289.113 414.214 288.991 413.854 288.991 413.483C288.991 413.113 289.113 412.753 289.338 412.458L293.315 390.751L317.418 282.215C318.808 275.706 317.558 268.911 313.942 263.325C310.325 257.739 304.64 253.819 298.135 252.428C291.631 251.036 284.841 252.288 279.258 255.906C273.676 259.525 269.759 265.214 268.368 271.723C268.368 271.723 211.003 537.395 211.003 539.807C210.214 542.912 210.05 546.144 210.523 549.312C210.995 552.481 212.093 555.524 213.754 558.264C215.414 561.003 217.603 563.384 220.194 565.267C222.784 567.151 225.723 568.499 228.84 569.233H230.165C233.284 570.039 236.534 570.212 239.721 569.741C242.908 569.269 245.968 568.163 248.721 566.488C251.473 564.813 253.862 562.603 255.747 559.988C257.631 557.373 258.972 554.406 259.691 551.264C259.646 550.863 259.646 550.459 259.691 550.058C260.414 546.923 267.645 511.588 267.645 511.588C270.321 498.563 276.918 486.67 286.548 477.508C296.178 468.345 308.381 462.352 321.515 460.335C327.059 459.491 350.318 457.923 350.318 457.923C396.592 453.306 439.369 431.216 469.941 396.151C500.513 361.085 516.582 315.679 514.877 269.175C513.172 222.672 493.822 178.566 460.765 145.836C427.708 113.106 383.429 94.2121 336.941 93V93Z" fill="#1E1E1E"/>
<path d="M347.603 513.652C343.671 512.812 339.615 512.783 335.672 513.568C331.729 514.354 327.977 515.937 324.635 518.226C321.293 520.515 318.428 523.465 316.206 526.902C313.984 530.34 312.45 534.198 311.692 538.251C310.848 542.232 310.775 546.346 311.479 550.357C312.183 554.367 313.65 558.195 315.796 561.622C317.942 565.05 320.725 568.008 323.985 570.329C327.245 572.65 330.918 574.288 334.795 575.148H335.633C339.454 576.096 343.42 576.255 347.301 575.615C351.182 574.975 354.901 573.55 358.241 571.422C361.582 569.294 364.478 566.505 366.762 563.218C369.045 559.93 370.67 556.21 371.543 552.272V550.55C372.908 542.42 371.187 534.062 366.733 527.197C362.279 520.332 355.432 515.485 347.603 513.652V513.652Z" fill="#E6007A"/>
</svg>
