<svg width="672" height="672" viewBox="0 0 672 672" fill="none" xmlns="http://www.w3.org/2000/svg">
<rect width="672" height="672" fill="#D9D9D9"/>
<path fill-rule="evenodd" clip-rule="evenodd" d="M163.481 230.036C164.045 224.493 161.921 219.025 157.787 215.304L115.694 164.572V157H246.446L347.508 378.624L436.355 157H561V164.572L524.995 199.089C521.895 201.456 520.354 205.346 520.993 209.198V462.821C520.354 466.654 521.895 470.544 524.995 472.911L560.154 507.428V515H383.287V507.428L419.724 472.066C423.295 468.496 423.295 467.443 423.295 461.976V256.98L322.026 514.173H308.346L190.428 256.98V429.357C189.451 436.591 191.856 443.9 196.949 449.123L244.323 506.582V514.173H110V506.582L157.374 449.123C162.448 443.881 164.703 436.534 163.481 429.357V230.036V230.036Z" fill="black"/>
</svg>
