<svg width="126" height="127" viewBox="0 0 126 127" fill="none" xmlns="http://www.w3.org/2000/svg">
<ellipse cx="63" cy="63.5" rx="63" ry="63.5" fill="white"/>
<line x1="12" y1="48.4993" x2="53" y2="48.4993" stroke="black" stroke-width="4"/>
<line x1="74" y1="48.4993" x2="116" y2="48.4993" stroke="black" stroke-width="4"/>
<line x1="57" y1="39.4993" x2="69" y2="39.4993" stroke="black" stroke-width="4"/>
<line x1="60" y1="32.4993" x2="67" y2="32.4993" stroke="black" stroke-width="2"/>
<line x1="63.579" y1="29.0208" x2="63.4216" y2="22.0226" stroke="black" stroke-width="2"/>
<line x1="12" y1="86.4993" x2="116" y2="86.4993" stroke="black" stroke-width="4"/>
<path d="M53.1094 66.8076L54.832 57.7021H57.46L54.6211 70.499H51.9668L49.8838 61.9385L47.8008 70.499H45.1465L42.3076 57.7021H44.9355L46.667 66.79L48.7764 57.7021H51.0088L53.1094 66.8076ZM68.8594 66.8076L70.582 57.7021H73.21L70.3711 70.499H67.7168L65.6338 61.9385L63.5508 70.499H60.8965L58.0576 57.7021H60.6855L62.417 66.79L64.5264 57.7021H66.7588L68.8594 66.8076ZM84.3281 57.7021V66.1309C84.3281 67.5312 83.8887 68.6387 83.0098 69.4531C82.1367 70.2676 80.9414 70.6748 79.4238 70.6748C77.9297 70.6748 76.7432 70.2793 75.8643 69.4883C74.9854 68.6973 74.5371 67.6104 74.5195 66.2275V57.7021H77.1562V66.1484C77.1562 66.9863 77.3555 67.5986 77.7539 67.9854C78.1582 68.3662 78.7148 68.5566 79.4238 68.5566C80.9062 68.5566 81.6592 67.7773 81.6826 66.2188V57.7021H84.3281Z" fill="black"/>
<path d="M48.8325 74.1006L50.9243 79.3213L53.0161 74.1006H54.1104V80.499H53.2666V78.0073L53.3457 75.3179L51.2451 80.499H50.5991L48.5029 75.3311L48.5864 78.0073V80.499H47.7427V74.1006H48.8325ZM58.4082 80.0288C58.0918 80.4009 57.6274 80.5869 57.0151 80.5869C56.5083 80.5869 56.1216 80.4404 55.855 80.1475C55.5913 79.8516 55.458 79.415 55.4551 78.8379V75.7441H56.2681V78.8159C56.2681 79.5366 56.561 79.897 57.147 79.897C57.7681 79.897 58.1812 79.6655 58.3862 79.2026V75.7441H59.1992V80.499H58.4258L58.4082 80.0288ZM55.9341 74.4741C55.9341 74.3423 55.9736 74.2324 56.0527 74.1445C56.1348 74.0537 56.2549 74.0083 56.4131 74.0083C56.5713 74.0083 56.6914 74.0537 56.7734 74.1445C56.8555 74.2324 56.8965 74.3423 56.8965 74.4741C56.8965 74.606 56.8555 74.7158 56.7734 74.8037C56.6914 74.8916 56.5713 74.9355 56.4131 74.9355C56.2549 74.9355 56.1348 74.8916 56.0527 74.8037C55.9736 74.7158 55.9341 74.606 55.9341 74.4741ZM57.8237 74.4829C57.8237 74.3511 57.8633 74.2397 57.9424 74.1489C58.0244 74.0581 58.1445 74.0127 58.3027 74.0127C58.4609 74.0127 58.5811 74.0581 58.6631 74.1489C58.7451 74.2397 58.7861 74.3511 58.7861 74.4829C58.7861 74.6147 58.7451 74.7246 58.6631 74.8125C58.5811 74.9004 58.4609 74.9443 58.3027 74.9443C58.1445 74.9443 58.0244 74.9004 57.9424 74.8125C57.8633 74.7246 57.8237 74.6147 57.8237 74.4829ZM61.2075 75.7441L61.2339 76.3418C61.5972 75.8848 62.0718 75.6562 62.6577 75.6562C63.6626 75.6562 64.1694 76.2231 64.1782 77.3569V80.499H63.3652V77.3525C63.3623 77.0098 63.2832 76.7563 63.1279 76.5923C62.9756 76.4282 62.7368 76.3462 62.4116 76.3462C62.1479 76.3462 61.9165 76.4165 61.7173 76.5571C61.5181 76.6978 61.3628 76.8823 61.2515 77.1108V80.499H60.4385V75.7441H61.2075ZM68.1729 79.2378C68.1729 79.0181 68.0894 78.8481 67.9224 78.728C67.7583 78.605 67.4697 78.4995 67.0566 78.4116C66.6465 78.3237 66.3198 78.2183 66.0767 78.0952C65.8364 77.9722 65.6577 77.8257 65.5405 77.6558C65.4263 77.4858 65.3691 77.2837 65.3691 77.0493C65.3691 76.6597 65.5332 76.3301 65.8613 76.0605C66.1924 75.791 66.6143 75.6562 67.127 75.6562C67.666 75.6562 68.1025 75.7954 68.4365 76.0737C68.7734 76.3521 68.9419 76.708 68.9419 77.1416H68.1245C68.1245 76.9189 68.0293 76.7271 67.8389 76.5659C67.6514 76.4048 67.4141 76.3242 67.127 76.3242C66.8311 76.3242 66.5996 76.3887 66.4326 76.5176C66.2656 76.6465 66.1821 76.8149 66.1821 77.0229C66.1821 77.2192 66.2598 77.3672 66.415 77.4668C66.5703 77.5664 66.8501 77.6616 67.2544 77.7524C67.6616 77.8433 67.9912 77.9517 68.2432 78.0776C68.4951 78.2036 68.6812 78.356 68.8013 78.5347C68.9243 78.7104 68.9858 78.9258 68.9858 79.1807C68.9858 79.6055 68.8159 79.9468 68.4761 80.2046C68.1362 80.4595 67.6953 80.5869 67.1533 80.5869C66.7725 80.5869 66.4355 80.5195 66.1426 80.3848C65.8496 80.25 65.6196 80.0625 65.4526 79.8223C65.2886 79.5791 65.2065 79.3169 65.2065 79.0356H66.0195C66.0342 79.3081 66.1426 79.5249 66.3447 79.686C66.5498 79.8442 66.8193 79.9233 67.1533 79.9233C67.4609 79.9233 67.707 79.8618 67.8916 79.7388C68.0791 79.6128 68.1729 79.4458 68.1729 79.2378ZM71.1479 74.5928V75.7441H72.0356V76.3726H71.1479V79.3213C71.1479 79.5117 71.1875 79.6553 71.2666 79.752C71.3457 79.8457 71.4805 79.8926 71.6709 79.8926C71.7646 79.8926 71.8936 79.875 72.0576 79.8398V80.499C71.8438 80.5576 71.6357 80.5869 71.4336 80.5869C71.0703 80.5869 70.7964 80.4771 70.6118 80.2573C70.4272 80.0376 70.335 79.7256 70.335 79.3213V76.3726H69.4692V75.7441H70.335V74.5928H71.1479ZM74.9624 80.5869C74.3179 80.5869 73.7935 80.376 73.3892 79.9541C72.9849 79.5293 72.7827 78.9624 72.7827 78.2534V78.104C72.7827 77.6323 72.8721 77.2119 73.0508 76.8428C73.2324 76.4707 73.4844 76.1807 73.8066 75.9727C74.1318 75.7617 74.4834 75.6562 74.8613 75.6562C75.4795 75.6562 75.96 75.8599 76.3027 76.2671C76.6455 76.6743 76.8169 77.2573 76.8169 78.0161V78.3545H73.5957C73.6074 78.8232 73.7437 79.2026 74.0044 79.4927C74.2681 79.7798 74.6021 79.9233 75.0063 79.9233C75.2935 79.9233 75.5366 79.8647 75.7358 79.7476C75.9351 79.6304 76.1094 79.4751 76.2588 79.2817L76.7554 79.6685C76.3569 80.2808 75.7593 80.5869 74.9624 80.5869ZM74.8613 76.3242C74.5332 76.3242 74.2578 76.4443 74.0352 76.6846C73.8125 76.9219 73.6748 77.2559 73.6221 77.6865H76.0039V77.625C75.9805 77.2119 75.8691 76.8926 75.6699 76.667C75.4707 76.4385 75.2012 76.3242 74.8613 76.3242ZM80.0601 76.4736C79.937 76.4531 79.8037 76.4429 79.6602 76.4429C79.127 76.4429 78.7651 76.6699 78.5747 77.124V80.499H77.7617V75.7441H78.5527L78.5659 76.2935C78.8325 75.8687 79.2104 75.6562 79.6997 75.6562C79.8579 75.6562 79.978 75.6768 80.0601 75.7178V76.4736Z" fill="black"/>
</svg>
