<svg width="65" height="65" viewBox="0 0 65 65" fill="none" xmlns="http://www.w3.org/2000/svg">
<rect width="65" height="65" fill="white"/>
<path d="M35.5 23.625V13H19.875C18.8359 13 18 13.8359 18 14.875V51.125C18 52.1641 18.8359 53 19.875 53H46.125C47.1641 53 48 52.1641 48 51.125V25.5H37.375C36.3438 25.5 35.5 24.6562 35.5 23.625ZM40.5 42.0625C40.5 42.5781 40.0781 43 39.5625 43H26.4375C25.9219 43 25.5 42.5781 25.5 42.0625V41.4375C25.5 40.9219 25.9219 40.5 26.4375 40.5H39.5625C40.0781 40.5 40.5 40.9219 40.5 41.4375V42.0625ZM40.5 37.0625C40.5 37.5781 40.0781 38 39.5625 38H26.4375C25.9219 38 25.5 37.5781 25.5 37.0625V36.4375C25.5 35.9219 25.9219 35.5 26.4375 35.5H39.5625C40.0781 35.5 40.5 35.9219 40.5 36.4375V37.0625ZM40.5 31.4375V32.0625C40.5 32.5781 40.0781 33 39.5625 33H26.4375C25.9219 33 25.5 32.5781 25.5 32.0625V31.4375C25.5 30.9219 25.9219 30.5 26.4375 30.5H39.5625C40.0781 30.5 40.5 30.9219 40.5 31.4375ZM48 22.5234V23H38V13H38.4766C38.9766 13 39.4531 13.1953 39.8047 13.5469L47.4531 21.2031C47.8047 21.5547 48 22.0313 48 22.5234Z" fill="black"/>
</svg>
