<svg width="672" height="672" viewBox="0 0 672 672" fill="none" xmlns="http://www.w3.org/2000/svg">
<rect width="672" height="672" rx="336" fill="#525252"/>
<path fill-rule="evenodd" clip-rule="evenodd" d="M189.417 246.019C189.896 241.312 188.093 236.669 184.582 233.51L148.835 190.43V184H259.873L345.697 372.195L421.148 184H527V190.43L496.424 219.74C493.791 221.751 492.482 225.053 493.025 228.324V443.692C492.482 446.947 493.791 450.249 496.424 452.26L526.282 481.57V488H376.082V481.57L407.025 451.542C410.057 448.51 410.057 447.617 410.057 442.974V268.899L324.058 487.298H312.44L212.302 268.899V415.275C211.472 421.418 213.514 427.624 217.839 432.06L258.07 480.852V487.298H144V480.852L184.231 432.06C188.54 427.608 190.455 421.37 189.417 415.275V246.019V246.019Z" fill="white"/>
</svg>
