<svg width="32" height="26" viewBox="0 0 32 26" fill="none" xmlns="http://www.w3.org/2000/svg">
<path d="M30.1239 0.558193C27.0794 0.730974 21.0281 1.35987 17.2925 3.64658C17.0347 3.80436 16.8886 4.08492 16.8886 4.37826V24.5936C16.8886 25.2353 17.5903 25.6409 18.182 25.3431C22.0254 23.4086 27.5838 22.8808 30.3322 22.7364C31.2705 22.6869 32 21.9347 32 21.033V2.26378C32.0006 1.27987 31.1472 0.500414 30.1239 0.558193ZM14.7075 3.64658C10.9724 1.35987 4.9212 0.731529 1.8767 0.558193C0.853348 0.500414 0 1.27987 0 2.26378V21.0336C0 21.9358 0.729457 22.688 1.66781 22.7369C4.4173 22.8814 9.97851 23.4097 13.8219 25.3453C14.4119 25.6425 15.1114 25.2375 15.1114 24.5975V4.36826C15.1114 4.07436 14.9658 3.80492 14.7075 3.64658Z" fill="url(#paint0_radial)"/>
<defs>
<radialGradient id="paint0_radial" cx="0" cy="0" r="1" gradientUnits="userSpaceOnUse" gradientTransform="translate(1.91629e-06 25.4446) rotate(-37.6168) scale(40.7771 70.4761)">
<stop stop-color="#0B2738"/>
<stop offset="0.597094" stop-color="#020817"/>
</radialGradient>
</defs>
</svg>
