<svg width="542" height="542" viewBox="0 0 542 542" fill="none" xmlns="http://www.w3.org/2000/svg">
<circle cx="271" cy="271" r="261" fill="#2D4F9D"/>
<path d="M394.951 120.549L395.475 124.572L389.444 125.821L388.642 134.393H395.865L405.473 133.467L410.434 127.571L405.161 125.52L402.274 122.198L397.938 115.176L395.865 105.244L387.717 106.905L385.432 110.405V114.351L389.355 117.037L394.951 120.549Z" fill="#93BD52"/>
<path d="M388.007 123.85L388.441 118.478L383.659 116.416L376.971 117.965L372.011 125.924V131.084H377.796L388.007 123.85Z" fill="#93BD52"/>
<path d="M250.344 146.667L248.873 150.457H241.75V154.135H243.445C243.445 154.135 243.545 154.915 243.69 155.941L248.059 155.573L250.79 153.879L251.504 150.457L255.037 150.156L256.43 147.28L253.187 146.611L250.344 146.667Z" fill="#93BD52"/>
<path d="M231.986 153.343L231.707 156.944L236.868 156.509L237.403 152.898L234.304 150.457L231.986 153.343Z" fill="#93BD52"/>
<path d="M541.943 268.197C541.865 260.271 541.463 252.402 540.717 244.655C538.209 218.829 532.033 194.072 522.782 170.865C522.09 169.137 521.455 167.387 520.719 165.682C508.391 136.556 491.08 110.039 469.89 87.1547C468.497 85.6611 467.081 84.1897 465.666 82.7407C461.664 78.583 457.551 74.5257 453.293 70.6356C405.117 26.774 341.134 0 270.999 0C200.273 0 135.834 27.2533 87.5241 71.7836C76.2659 82.1611 65.9218 93.4859 56.5362 105.613C21.1342 151.403 0 208.763 0 270.994C0 420.436 121.577 542 271.01 542C376.124 542 467.382 481.809 512.304 394.108C521.912 375.359 529.392 355.374 534.43 334.429C535.712 329.112 536.815 323.773 537.774 318.367C540.505 302.974 541.999 287.146 541.999 270.994C542.01 270.058 541.954 269.133 541.943 268.197ZM490.935 159.886L492.507 158.125C494.569 162.126 496.498 166.195 498.337 170.319L495.773 170.219L490.935 170.887V159.886V159.886ZM451.777 112.602L451.821 100.497C456.08 105.011 460.182 109.66 464.105 114.475L459.223 121.742L442.157 121.586L441.087 118.031L451.777 112.602ZM124.866 82.5178V82.0607H130.294L130.762 80.1993H139.646V84.0783L137.094 87.4891H124.855L124.866 82.5178ZM133.538 94.6117C133.538 94.6117 138.966 93.6866 139.434 93.6866C139.903 93.6866 139.434 99.1038 139.434 99.1038L127.195 99.8729L124.866 97.0863L133.538 94.6117ZM508.202 202.187H488.372L476.289 193.192L463.57 194.429V202.187H459.546L455.199 199.088L433.173 193.504V179.236L405.262 181.41L396.612 186.058H385.532L380.103 185.512L366.649 192.98V207.036L339.15 226.876L341.435 235.348H347.009L345.549 243.418L341.625 244.856L341.413 265.945L365.178 293.009H375.522L376.146 291.359H394.739L400.101 286.399H410.645L416.431 292.195L432.148 293.823L430.063 314.722L447.508 345.52L438.323 363.076L438.947 371.347L446.181 378.558V398.444L455.678 411.218V427.737H463.882C418.225 483.793 348.737 519.696 270.988 519.696C133.861 519.707 22.2935 408.13 22.2935 270.994C22.2935 236.474 29.3828 203.569 42.1458 173.663V165.905L51.0409 155.104C54.1285 149.274 57.4391 143.59 60.9726 138.05L61.3739 142.564L51.052 155.104C47.8529 161.145 44.8656 167.321 42.1569 173.663V187.819L52.4899 192.79V212.464L62.3994 229.373L70.4585 230.611L71.4951 224.814L61.987 210.146L60.1255 195.889H65.6988L68.0508 210.558L81.7947 230.611L78.25 237.087L86.9891 250.451L108.692 255.824V252.313L117.375 253.55L116.55 259.748L123.372 260.996L133.906 263.872L148.787 280.826L167.792 282.264L169.653 297.768L156.645 306.864L156.032 320.708L154.17 329.179L172.986 352.732L174.424 360.802C174.424 360.802 181.246 362.652 182.082 362.652C182.907 362.652 197.375 373.609 197.375 373.609V416.178L202.536 417.627L199.025 437.267L207.708 448.848L206.103 468.31L217.573 488.474L232.298 501.337L247.101 501.605L248.55 496.845L237.671 487.683L238.295 483.135L240.245 477.562L240.658 471.877L233.301 471.654L229.589 466.995L235.698 461.121L236.522 456.684L229.701 454.734L230.102 450.61L239.822 449.138L254.602 442.038L259.563 432.942L275.068 413.102L271.545 397.586L276.305 389.326L290.562 389.761L300.159 382.159L303.258 352.219L313.903 338.698L315.765 330.015L306.056 326.905L299.646 316.394L277.743 316.171L260.376 309.55L259.552 297.166L253.755 287.034L238.05 286.8L228.976 272.555L220.917 268.62L220.505 272.967L205.835 273.837L200.463 266.357L185.158 263.248L172.551 277.816L152.71 274.45L151.272 252.09L136.793 249.615L142.6 238.647L140.939 232.349L121.912 245.068L109.94 243.607L105.671 234.255L108.279 224.614L114.878 212.453L130.071 204.762L159.409 204.751L159.331 213.701L169.876 218.606L169.04 203.313L176.642 195.666L191.98 185.59L193.028 178.501L208.321 162.583L224.584 153.577L223.146 152.395L234.159 142.029L238.194 143.099L240.045 145.418L244.225 140.781L245.25 140.324L240.669 139.677L236.021 138.128V133.669L238.484 131.652H243.913L246.398 132.744L248.55 137.091L251.18 136.69V136.311L251.938 136.567L259.563 135.397L260.644 131.674L264.991 132.766V136.801L260.956 139.577H260.967L261.558 144.002L275.369 148.26C275.369 148.26 275.38 148.316 275.402 148.427L278.579 148.16L278.791 142.174L267.845 137.191L267.221 134.316L276.305 131.217L276.706 122.523L267.209 116.738L266.585 102.08L253.566 108.478H248.817L250.066 97.3203L232.342 93.1404L225.008 98.6802V115.578L211.821 119.758L206.538 130.771L200.808 131.696V117.607L188.413 115.89L182.216 111.855L179.719 102.726L201.89 89.7519L212.735 86.4525L213.828 93.7423L219.869 93.4302L220.337 89.763L226.658 88.8601L226.769 87.5783L224.049 86.4525L223.425 82.5735L231.194 81.9158L235.887 77.0337L236.143 76.677L236.199 76.6993L237.626 75.2279L253.956 73.1658L261.179 79.2964L242.241 89.384L266.34 95.0688L269.461 87.0098H279.995L283.718 79.9875L276.272 78.126V69.2422L252.919 58.8983L236.801 60.7597L227.705 65.5193L228.33 77.0894L218.821 75.6403L217.361 69.2422L226.468 60.9715L209.937 60.1467L205.189 61.5846L203.127 67.1578L209.324 68.2056L208.087 74.4031L197.553 75.0273L195.904 79.1515L180.622 79.5751C180.622 79.5751 180.198 70.9031 179.585 70.9031C178.972 70.9031 191.568 70.6913 191.568 70.6913L200.675 61.7964L195.703 59.3107L189.093 65.7311L178.125 65.1069L171.515 56.0113H157.459L142.79 66.9683H156.233L157.459 70.9031L153.97 74.1467L168.851 74.5591L171.125 79.9318L154.371 79.3076L153.557 75.1722L143.024 72.8983L137.439 69.7996L124.899 69.8999C165.952 39.9937 216.436 22.2931 270.999 22.2931C333.889 22.2931 391.35 45.8011 435.191 84.4238L432.237 89.7073L420.767 94.1993L415.929 99.4493L417.044 105.569L422.963 106.394L426.53 115.311L436.74 111.198L438.423 123.125H435.347L426.964 121.887L417.668 123.448L408.672 136.155L395.809 138.172L393.948 149.185L399.376 150.467L397.804 157.545L385.03 154.981L373.315 157.545L370.829 164.066L372.858 177.754L379.736 180.975L391.272 180.908L399.064 180.206L401.438 174.008L413.61 158.192L421.625 159.83L429.517 152.696L430.988 158.27L450.406 171.367L448.032 174.555L439.281 174.086L442.648 178.857L448.032 180.039L454.341 177.408L454.207 169.806L457.005 168.402L454.753 166.016L441.801 158.793L438.39 149.196H449.157L452.602 152.607L461.876 160.599L462.266 170.263L471.874 180.496L475.453 166.473L482.107 162.84L483.356 174.309L489.854 181.443L502.818 181.22C505.326 187.674 507.577 194.239 509.55 200.938L508.202 202.187ZM147.817 123.125L154.326 120.026L160.212 121.43L158.183 129.333L151.83 131.351L147.817 123.125ZM182.36 141.728V146.844H167.491L161.917 145.295L163.311 141.728L170.456 138.774H180.22V141.728H182.36ZM189.205 148.862V153.822L185.482 156.219L180.845 157.077C180.845 157.077 180.845 149.642 180.845 148.862H189.205ZM185.013 146.844V140.948L190.13 145.607L185.013 146.844ZM187.343 158.771V163.598L183.787 167.164H175.884L177.122 161.747L180.856 161.424L181.625 159.563L187.343 158.771ZM167.658 148.862H175.873L165.339 163.586L160.992 161.257L161.929 155.059L167.658 148.862ZM201.299 157.077V161.892H193.396L191.233 158.771V154.29H191.857L201.299 157.077ZM193.998 150.456L196.249 148.093L200.05 150.456L197.007 152.964L193.998 150.456ZM512.237 214.738L513.017 213.824C513.34 215.228 513.686 216.633 513.998 218.06L512.237 214.738Z" fill="#93BD52"/>
<path d="M42.1568 165.905V173.663C44.8655 167.332 47.8528 161.157 51.0519 155.104L42.1568 165.905Z" fill="#93BD52"/>
<circle cx="271" cy="271" r="252" stroke="#2D4F9D" stroke-width="10"/>
</svg>
