<svg width="153" height="153" viewBox="0 0 153 153" fill="none" xmlns="http://www.w3.org/2000/svg">
<circle cx="76.5" cy="76.5" r="76.5" fill="#DBDBDB"/>
<path d="M69.7262 79.652V91.2927C69.7262 93.7513 68.7618 96.1092 67.0451 97.8477C65.3284 99.5861 63.0001 100.563 60.5723 100.563V56.7018C60.5723 55.4572 61.0596 54.2634 61.9274 53.3821C62.7952 52.5009 63.9726 52.004 65.2016 52.0005H91.1723C91.1724 54.0964 90.3547 56.1075 88.8974 57.5958C87.4401 59.084 85.4611 59.9289 83.3916 59.9463H69.7262V79.652Z" fill="#34887E"/>
<path d="M83.6923 79.4537H74.7869V71.6006H83.6923C84.7328 71.6006 85.7306 72.0192 86.4663 72.7642C87.2021 73.5093 87.6154 74.5198 87.6154 75.5735C87.5915 76.611 87.1676 77.5979 86.4345 78.323C85.7013 79.0482 84.7171 79.454 83.6923 79.4537V79.4537Z" fill="#34887E"/>
<path d="M51 79.2552C50.8038 79.0168 50.6077 78.7784 50.3985 78.5533C49.5094 77.6349 48.9807 76.4202 48.9109 75.1361C48.8411 73.8519 49.2351 72.5858 50.0192 71.5742C50.0846 71.4682 50.1631 71.3755 50.2415 71.2696C51.5962 69.2219 52.2781 66.7934 52.19 64.3302C52.244 62.3715 51.8781 60.4242 51.1177 58.6225C50.4507 57.1098 49.4159 55.793 48.11 54.7952C46.714 53.7803 45.1309 53.0597 43.4546 52.6763C41.5008 52.2104 39.4988 51.9836 37.4915 52.0009H17V92.8028H26.1538V79.5597H39.4531C42.2864 79.5597 43.7031 80.9459 43.7031 83.7181V88.4988C43.7425 89.0866 43.6631 89.6763 43.4697 90.2319C43.2764 90.7875 42.9731 91.2973 42.5785 91.7301C41.6166 92.5018 40.4017 92.8756 39.1785 92.7763H26.1538C26.1486 93.8188 26.3483 94.8519 26.7414 95.8154C27.1345 96.7789 27.7131 97.6535 28.4434 98.3882C29.1737 99.1228 30.0412 99.7029 30.9952 100.095C31.9492 100.486 32.9707 100.682 34 100.669H37.9231C40.056 100.693 42.1831 100.439 44.2523 99.9144C46.0276 99.4718 47.6872 98.645 49.1169 97.4909C50.4765 96.2903 51.5192 94.7656 52.1508 93.0544C52.9373 90.9402 53.3103 88.6913 53.2492 86.4329C53.3463 83.8483 52.5509 81.3102 51 79.2552ZM42.6308 67.3364C42.7131 68.462 42.4382 69.5849 41.8462 70.5412C41.4413 70.9474 40.9512 71.256 40.4124 71.444C39.8736 71.632 39.2999 71.6946 38.7338 71.6272H26.1538V59.9468H38.6685C41.2838 59.9468 42.5915 61.1784 42.5915 63.6548L42.6308 67.3364Z" fill="black"/>
<path d="M135.778 52.0008C133.35 52.0008 131.022 52.9774 129.305 54.7159C127.588 56.4544 126.624 58.8123 126.624 61.2709V88.9887H126.349L113.39 55.5764C112.979 54.5136 112.259 53.6024 111.324 52.9638C110.39 52.3252 109.286 51.9893 108.159 52.0008H98.3254V91.4254H107.348V63.509H107.623L122.008 100.59H130.259C130.989 100.59 131.712 100.444 132.386 100.161C133.06 99.8783 133.673 99.4637 134.189 98.9411C134.705 98.4185 135.115 97.798 135.394 97.1151C135.673 96.4323 135.817 95.7004 135.817 94.9613V52.0008H135.778Z" fill="#6785F8"/>
<path d="M98.3254 100.563H93.7615C92.5789 100.563 91.4447 100.087 90.6084 99.2403C89.7721 98.3934 89.3023 97.2448 89.3023 96.0471V95.9412C89.3023 94.7435 89.7721 93.5949 90.6084 92.748C91.4447 91.9011 92.5789 91.4253 93.7615 91.4253H98.3254V100.563Z" fill="#6785F8"/>
</svg>
