<svg width="670" height="670" viewBox="0 0 670 670" fill="none" xmlns="http://www.w3.org/2000/svg">
<rect width="670" height="670" rx="335" fill="#2D6D86"/>
<path d="M546 352.546V266.914H520.208V348.354C520.208 354.941 520.208 356.738 519.608 359.732C518.409 369.313 511.211 374.702 500.415 374.702C492.017 374.702 486.019 371.708 483.02 365.72C481.821 362.726 480.621 358.534 480.621 350.749V266.914H454.229V355.54C454.229 367.516 455.429 372.906 459.628 379.493C466.825 390.871 481.221 396.26 500.415 396.26C528.006 396.26 540.602 382.487 543.601 372.307C546 366.918 546 364.522 546 352.546Z" fill="white"/>
<path d="M245.855 395.068L276.469 266.914H249.457L239.252 315.195C236.251 327.713 232.649 353.343 232.049 357.516C232.049 357.516 229.048 336.057 226.647 324.136L214.641 267.51H186.428L175.023 318.772C171.422 336.057 169.02 354.535 168.42 359.304C168.42 359.304 166.619 341.422 161.817 317.579L151.012 267.51H124L154.614 395.664H184.027L194.832 343.806C198.434 327.117 200.235 311.023 200.835 308.042C201.435 312.811 203.236 328.309 206.838 344.402L218.243 396.26H245.855V395.068Z" fill="white"/>
<path d="M407.863 395.068L438.332 266.914H411.448L401.292 315.195C398.304 327.713 394.72 353.343 394.122 357.516C394.122 357.516 391.135 336.057 388.746 324.136L376.797 267.51H348.718L337.367 318.772C333.782 336.057 331.392 354.535 330.795 359.304C330.795 359.304 329.003 341.422 324.223 317.579L313.47 267.51H286.585L317.054 395.664H346.328L357.082 343.806C360.666 327.117 362.459 311.023 363.056 308.042C363.654 312.811 365.446 328.309 369.03 344.402L380.382 396.26H407.863V395.068Z" fill="white"/>
<path d="M336.445 120.226H330.665V134.678H336.445V120.226Z" fill="white"/>
<path d="M347.284 140.459H319.825V146.962H347.284V140.459Z" fill="white"/>
<path d="M357.4 170.085H311.154V184.538H357.4V170.085Z" fill="white"/>
<path d="M288.753 198.267H130.503V212.719H288.753V198.267Z" fill="white"/>
<path d="M539.497 198.267H381.247V212.719H539.497V198.267Z" fill="white"/>
<path d="M536.606 453.346H129.781V460.572H536.606V453.346Z" fill="white"/>
<path d="M536.606 513.322H129.781V527.774H536.606V513.322Z" fill="white"/>
</svg>
