<svg width="645" height="645" viewBox="0 0 645 645" fill="none" xmlns="http://www.w3.org/2000/svg">
<rect width="645" height="645" rx="322.5" fill="white"/>
<path d="M324.941 81C276.481 81.1905 230.06 100.539 195.793 134.829C161.526 169.119 142.19 215.571 142 264.064C142.004 284.272 145.259 304.346 151.641 323.518C153.939 329.801 158.555 334.964 164.539 337.947C170.524 340.93 177.423 341.507 183.819 339.557C189.999 337.19 195.047 332.555 197.935 326.596C200.823 320.638 201.334 313.802 199.365 307.479C193.945 292.543 191.529 276.682 192.255 260.808C193.026 235.214 201.218 210.395 215.832 189.376C230.446 168.356 250.852 152.041 274.565 142.418C298.278 132.795 324.276 130.278 349.393 135.175C374.51 140.072 397.663 152.17 416.032 169.997C434.401 187.825 447.194 210.612 452.853 235.584C458.513 260.556 456.795 286.636 447.909 310.649C439.022 334.662 423.35 355.571 402.802 370.831C382.253 386.091 357.714 395.044 332.172 396.599C332.172 396.599 306.502 398.167 293.728 399.735C289.023 400.415 284.357 401.341 279.748 402.508C279.591 402.669 279.404 402.796 279.197 402.883C278.99 402.97 278.768 403.015 278.543 403.015C278.319 403.015 278.096 402.97 277.889 402.883C277.683 402.796 277.495 402.669 277.338 402.508C277.113 402.214 276.991 401.854 276.991 401.483C276.991 401.113 277.113 400.753 277.338 400.458L281.315 378.751L305.418 270.215C306.808 263.706 305.558 256.911 301.942 251.325C298.325 245.739 292.64 241.819 286.135 240.428C279.631 239.036 272.841 240.288 267.258 243.906C261.676 247.525 257.759 253.214 256.368 259.723C256.368 259.723 199.003 525.395 199.003 527.807C198.214 530.912 198.05 534.144 198.523 537.312C198.995 540.481 200.093 543.524 201.754 546.264C203.414 549.003 205.603 551.384 208.194 553.267C210.784 555.151 213.723 556.499 216.84 557.233H218.165C221.284 558.039 224.534 558.212 227.721 557.741C230.908 557.269 233.968 556.163 236.721 554.488C239.473 552.813 241.862 550.603 243.747 547.988C245.631 545.373 246.972 542.406 247.691 539.264C247.646 538.863 247.646 538.459 247.691 538.058C248.414 534.923 255.645 499.588 255.645 499.588C258.321 486.563 264.918 474.67 274.548 465.508C284.178 456.345 296.381 450.352 309.515 448.335C315.059 447.491 338.318 445.923 338.318 445.923C384.592 441.306 427.369 419.216 457.941 384.151C488.513 349.085 504.582 303.679 502.877 257.175C501.172 210.672 481.822 166.566 448.765 133.836C415.708 101.106 371.429 82.2121 324.941 81V81Z" fill="#1E1E1E"/>
<path d="M335.603 501.652C331.671 500.812 327.615 500.783 323.672 501.568C319.729 502.354 315.977 503.937 312.635 506.226C309.293 508.515 306.428 511.465 304.206 514.902C301.984 518.34 300.45 522.198 299.692 526.251C298.848 530.232 298.775 534.346 299.479 538.357C300.183 542.367 301.65 546.195 303.796 549.622C305.942 553.05 308.725 556.008 311.985 558.329C315.245 560.65 318.918 562.288 322.795 563.148H323.633C327.454 564.096 331.42 564.255 335.301 563.615C339.182 562.975 342.901 561.55 346.241 559.422C349.582 557.294 352.478 554.505 354.762 551.218C357.045 547.93 358.67 544.21 359.543 540.272V538.55C360.908 530.42 359.187 522.062 354.733 515.197C350.279 508.332 343.432 503.485 335.603 501.652Z" fill="#E6007A"/>
</svg>
