<svg width="670" height="670" viewBox="0 0 670 670" fill="none" xmlns="http://www.w3.org/2000/svg">
<rect width="670" height="670" fill="white"/>
<path d="M627 363.505V245H591.307V357.704C591.307 366.819 591.307 369.306 590.477 373.449C588.817 386.708 578.856 394.167 563.915 394.167C552.294 394.167 543.993 390.023 539.843 381.736C538.183 377.593 536.523 371.792 536.523 361.019V245H500V367.648C500 384.222 501.66 391.681 507.471 400.796C517.431 416.542 537.353 424 563.915 424C602.098 424 619.529 404.94 623.68 390.852C627 383.394 627 380.079 627 363.505Z" fill="#3E3E3B"/>
<path d="M211.634 422.35L254 245H216.618L202.496 311.816C198.343 329.138 193.358 364.608 192.528 370.382C192.528 370.382 188.374 340.687 185.051 324.189L168.437 245.825H129.394L113.61 316.765C108.626 340.687 105.303 366.258 104.472 372.857C104.472 372.857 101.98 348.111 95.3347 315.115L80.3819 245.825H43L85.3662 423.175H126.071L141.024 351.41C146.008 328.313 148.5 306.041 149.331 301.917C150.161 308.516 152.654 329.963 157.638 352.235L173.421 424H211.634V422.35Z" fill="#3E3E3B"/>
<path d="M435.835 422.35L478 245H440.795L426.74 311.816C422.606 329.138 417.646 364.608 416.819 370.382C416.819 370.382 412.685 340.687 409.378 324.189L392.843 245.825H353.984L338.276 316.765C333.315 340.687 330.008 366.258 329.181 372.857C329.181 372.857 326.701 348.111 320.087 315.115L305.205 245.825H268L310.165 423.175H350.677L365.559 351.41C370.52 328.313 373 306.041 373.827 301.917C374.654 308.516 377.134 329.963 382.095 352.235L397.803 424H435.835V422.35Z" fill="#3E3E3B"/>
<path d="M337 42H329V62H337V42Z" fill="#3E3E3B"/>
<path d="M352 70H314V79H352V70Z" fill="#3E3E3B"/>
<path d="M366 111H302V131H366V111Z" fill="#3E3E3B"/>
<path d="M271 150H52V170H271V150Z" fill="#3E3E3B"/>
<path d="M618 150H399V170H618V150Z" fill="#3E3E3B"/>
<path d="M614 503H51V513H614V503Z" fill="#3E3E3B"/>
<path d="M614 586H51V606H614V586Z" fill="#3E3E3B"/>
</svg>
