<svg width="26" height="32" viewBox="0 0 26 32" fill="none" xmlns="http://www.w3.org/2000/svg">
<path d="M14.3645 15.9759L25.28 26.8914C26.0344 27.6458 26.0344 28.8658 25.28 29.6122L23.4661 31.4261C22.7116 32.1806 21.4916 32.1806 20.7452 31.4261L13 23.697L5.2629 31.4342C4.50845 32.1886 3.28848 32.1886 2.54206 31.4342L0.720136 29.6203C-0.0343161 28.8658 -0.0343161 27.6458 0.720136 26.8994L11.6356 15.9839C12.3901 15.2215 13.61 15.2215 14.3645 15.9759ZM11.6356 0.565839L0.720136 11.4813C-0.0343161 12.2358 -0.0343161 13.4557 0.720136 14.2022L2.53403 16.0161C3.28848 16.7705 4.50845 16.7705 5.25487 16.0161L12.992 8.27891L20.7292 16.0161C21.4836 16.7705 22.7036 16.7705 23.45 16.0161L25.2639 14.2022C26.0184 13.4477 26.0184 12.2277 25.2639 11.4813L14.3484 0.565839C13.61 -0.188613 12.3901 -0.188613 11.6356 0.565839Z" fill="url(#paint0_linear)"/>
<defs>
<linearGradient id="paint0_linear" x1="13" y1="0" x2="13" y2="32" gradientUnits="userSpaceOnUse">
<stop stop-color="#28DC28"/>
<stop offset="1" stop-color="#0D670D"/>
</linearGradient>
</defs>
</svg>
